<svg xmlns="http://www.w3.org/2000/svg" aria-hidden="true" style="position:absolute;width:0;height:0;overflow:hidden">
  <defs>
    <symbol id="icon-calendar" viewBox="0 0 32 32">
      <path d="M6.666 3.894C4.415 3.894 2.56 5.749 2.56 8v18.666c0 2.251 1.855 4.106 4.106 4.106h18.669c2.251 0 4.106-1.855 4.106-4.106V8c0-2.251-1.855-4.106-4.106-4.106zm0 2.878h18.669c.695 0 1.225.534 1.225 1.228v18.666c0 .694-.53 1.228-1.225 1.228H6.666a1.205 1.205 0 0 1-1.225-1.228V8c0-.695.53-1.228 1.225-1.228z"/>
      <path d="M21.331 1.228a1.44 1.44 0 0 0-1.438 1.437v5.336a1.44 1.44 0 0 0 1.437 1.44h.001a1.44 1.44 0 0 0 1.44-1.44V2.666a1.44 1.44 0 0 0-1.44-1.438h-.001zm-10.665 0a1.44 1.44 0 0 0-1.438 1.437v5.336a1.44 1.44 0 0 0 1.437 1.44h.001a1.44 1.44 0 0 0 1.44-1.44V2.666a1.44 1.44 0 0 0-1.44-1.438h-.001zM4 11.894h-.001a1.44 1.44 0 0 0-1.44 1.44v.001a1.44 1.44 0 0 0 1.44 1.438h24.002a1.44 1.44 0 0 0 1.44-1.437v-.001a1.44 1.44 0 0 0-1.44-1.44H28z"/>
    </symbol>
    <symbol id="icon-check" viewBox="0 0 32 32">
      <path d="M26.668 8.241a1.09 1.09 0 0 0-.773.321L12 22.457l-5.895-5.895a1.088 1.088 0 0 0-1.542 0 1.088 1.088 0 0 0 0 1.542l6.668 6.668a1.088 1.088 0 0 0 1.542 0l14.665-14.668a1.088 1.088 0 0 0 0-1.542 1.087 1.087 0 0 0-.77-.321z"/>
    </symbol>
    <symbol id="icon-chevron-down" viewBox="0 0 32 32">
      <path d="M8 10.222c-.491 0-.935.199-1.257.521-.322.322-.521.766-.521 1.257s.199.935.521 1.257l8 8c.322.322.766.52 1.257.52s.935-.199 1.257-.52l8-8c.322-.322.521-.766.521-1.257s-.199-.935-.521-1.257c-.322-.322-.766-.521-1.257-.521s-.935.199-1.257.521L16 17.486l-6.743-6.743A1.771 1.771 0 0 0 8 10.222z"/>
    </symbol>
    <symbol id="icon-close" viewBox="0 0 32 32">
      <path d="M6.668 5.213h-.003a1.45 1.45 0 0 0-1.029 2.482l8.304 8.304-8.304 8.304a1.45 1.45 0 0 0 0 2.056c.263.264.627.427 1.03.427s.766-.163 1.03-.427L16 18.055l8.304 8.304a1.45 1.45 0 0 0 2.056 0 1.45 1.45 0 0 0 0-2.056l-8.304-8.304 8.304-8.304a1.45 1.45 0 0 0 0-2.056 1.45 1.45 0 0 0-2.056 0L16 13.943 7.696 5.639a1.45 1.45 0 0 0-1.028-.426z"/>
    </symbol>
    <symbol id="icon-edit" viewBox="0 0 32 32">
      <path d="M25.333 1.563a5.104 5.104 0 0 0-3.611 1.493l-18 18c-.159.16-.277.361-.338.584l-.002.009-2 7.333a1.333 1.333 0 0 0 1.645 1.632l-.009.002 7.333-2c.233-.064.434-.182.594-.34l18-18a5.12 5.12 0 0 0 1.104-5.566c-.256-.619-.63-1.182-1.104-1.656s-1.037-.848-1.656-1.104a5.123 5.123 0 0 0-1.955-.389zm0 2.666c.32 0 .638.061.934.184s.562.305.788.531c.226.226.409.492.531.788a2.453 2.453 0 0 1 0 1.868 2.44 2.44 0 0 1-.531.788L9.308 26.138l-4.743 1.295L5.86 22.69 23.61 4.943c.227-.227.492-.409.788-.531s.614-.184.934-.184z"/>
    </symbol>
    <symbol id="icon-eye" viewBox="0 0 32 32">
      <path d="M16 3.878C5.559 3.878.031 15.35.031 15.35a1.455 1.455 0 0 0 .003 1.31l-.004-.008s5.527 11.472 15.969 11.472 15.966-11.472 15.966-11.472a1.455 1.455 0 0 0-.003-1.31l.004.008S26.442 3.878 16 3.878zm0 2.909c7.683 0 12.264 8.078 12.889 9.213-.625 1.135-5.207 9.213-12.889 9.213S3.733 17.135 3.108 16C3.733 14.865 8.317 6.787 16 6.787z"/>
      <path d="M16 10.545c-2.995 0-5.455 2.459-5.455 5.455s2.459 5.455 5.455 5.455c2.995 0 5.455-2.459 5.455-5.455S18.996 10.545 16 10.545zm0 2.91c1.423 0 2.545 1.122 2.545 2.545S17.423 18.545 16 18.545c-1.423 0-2.545-1.122-2.545-2.545s1.122-2.545 2.545-2.545z"/>
    </symbol>
    <symbol id="icon-eye-off" viewBox="0 0 32 32">
      <path d="M16.003 3.878a13.667 13.667 0 0 0-3.134.358 1.457 1.457 0 0 0-1.08 1.76l-.002-.01a1.458 1.458 0 0 0 1.757 1.081l-.01.002a10.69 10.69 0 0 1 2.463-.281h.006c7.702 0 12.302 8.135 12.906 9.236-.669 1.148-1.376 2.277-2.233 3.295a1.453 1.453 0 0 0 .174 2.047l.002.002a1.453 1.453 0 0 0 2.047-.174l.002-.002a26.086 26.086 0 0 0 3.051-4.506 1.446 1.446 0 0 0 .013-1.343l.004.008S26.446 3.882 16.006 3.879zM8.276 6.639a1.45 1.45 0 0 0-1.081.287l.003-.003a26.065 26.065 0 0 0-7.145 8.389 1.454 1.454 0 0 0-.016 1.346l-.004-.008S5.56 28.122 16.002 28.122h.023-.001a14.886 14.886 0 0 0 8.778-3.045 1.454 1.454 0 0 0 .273-2.043l.003.003a1.453 1.453 0 0 0-2.043-.27l.003-.003a11.968 11.968 0 0 1-7.051 2.446c-7.688-.011-12.279-8.118-12.889-9.227 1.52-2.596 3.471-4.918 5.866-6.747a1.453 1.453 0 0 0 .27-2.043l.003.003a1.457 1.457 0 0 0-.956-.556l-.008-.001zm4.951 5.08-.051-.001c-.383 0-.732.148-.992.391l.001-.001a5.458 5.458 0 0 0 1.674 9.048c.68.274 1.407.411 2.139.398a5.462 5.462 0 0 0 3.895-1.736 1.45 1.45 0 0 0-.07-2.056l-.001-.001a1.448 1.448 0 0 0-.992-.39c-.42 0-.799.178-1.064.463l-.001.001a2.543 2.543 0 0 1-4.222-.782 2.555 2.555 0 0 1 .034-1.991c.139-.312.341-.591.591-.824a1.452 1.452 0 0 0 .071-2.058l.001.001a1.45 1.45 0 0 0-1.009-.463h-.003z"/>
      <path d="M1.335-.122A1.45 1.45 0 0 0 .307 2.36l29.332 29.335a1.45 1.45 0 0 0 2.056 0 1.45 1.45 0 0 0 0-2.056L2.363.304a1.45 1.45 0 0 0-1.028-.426z"/>
    </symbol>
    <symbol id="icon-female" viewBox="0 0 32 32">
      <path d="M16 3c-4.222 0-7.667 3.444-7.667 7.667 0 3.868 2.936 6.951 6.667 7.464v4.87h-3a1 1 0 0 0 0 2h3v3a1 1 0 0 0 2 0v-3h3a1 1 0 0 0 0-2h-3v-4.87c3.731-.512 6.667-3.596 6.667-7.464C23.667 6.445 20.223 3 16 3zm0 2c3.141 0 5.667 2.525 5.667 5.667S19.142 16.334 16 16.334c-3.141 0-5.667-2.525-5.667-5.667S12.858 5 16 5z"/>
    </symbol>
    <symbol id="icon-angle" viewBox="0 0 32 32">
      <path d="M14.134 16.947a1.334 1.334 0 0 1 0-1.894l6.12-6.107a1.334 1.334 0 1 0-1.88-1.894l-6.12 6.12a4.001 4.001 0 0 0 0 5.654l6.12 6.12a1.337 1.337 0 0 0 2.172-.434 1.331 1.331 0 0 0-.292-1.46l-6.12-6.107z"/>
    </symbol>
    <symbol id="icon-multiple" viewBox="0 0 32 32">
      <path d="M11.694 10.327a4.665 4.665 0 1 0 2.912 3.635.654.654 0 0 1 .313-.672.653.653 0 0 1 .504-.078.67.67 0 0 1 .501.546 5.993 5.993 0 0 1-3.514 6.403 5.997 5.997 0 1 1-.232-11.077.665.665 0 0 1 .433.609.669.669 0 0 1-.403.628.665.665 0 0 1-.515.006z"/>
      <path d="M9.331 26v-5.331a.665.665 0 1 1 1.332 0V26a.665.665 0 1 1-1.332 0z"/>
      <path d="M7.332 22.668a.665.665 0 0 1 .666-.666h3.998a.665.665 0 1 1 0 1.332H7.998a.665.665 0 0 1-.666-.666zm11.93-12.486a4.653 4.653 0 0 0-4.297.943 4.678 4.678 0 0 0-1.315 1.848 4.652 4.652 0 0 0-.288 2.249.67.67 0 0 1-.335.663.665.665 0 0 1-.989-.507 5.997 5.997 0 1 1 3.582 4.801.655.655 0 0 1-.355-.365.668.668 0 0 1 .883-.859 4.665 4.665 0 1 0 3.115-8.773z"/>
      <path d="M21.855 11.477a.665.665 0 0 1 0-.942l4.998-4.998a.658.658 0 0 1 .473-.203.655.655 0 0 1 .477.196.673.673 0 0 1 .196.477.669.669 0 0 1-.203.473l-4.998 4.998a.667.667 0 0 1-.942 0z"/>
      <path d="M27.273 10.007a.669.669 0 0 1-.657-.675l.033-2.648-2.648.033a.67.67 0 0 1-.675-.658.67.67 0 0 1 .658-.675L28 5.333l-.051 4.016a.65.65 0 0 1-.201.468c-.063.061-.137.109-.218.142s-.168.049-.256.047z"/>
    </symbol>
    <symbol id="icon-heart" viewBox="0 0 32 32">
      <path d="M22.601 2.663a8.654 8.654 0 0 0-6.129 2.542L16 5.674l-.469-.469a8.675 8.675 0 0 0-12.26 0 8.667 8.667 0 0 0 0 12.256l11.788 11.788a1.332 1.332 0 0 0 1.886 0L28.73 17.461a8.658 8.658 0 0 0 0-12.258c-.805-.805-1.757-1.446-2.809-1.882s-2.181-.66-3.319-.66zm0 2.667a5.974 5.974 0 0 1 4.243 1.76 6.018 6.018 0 0 1 1.76 4.243 6.006 6.006 0 0 1-1.76 4.243L16 26.42 5.156 15.576a5.997 5.997 0 0 1-1.757-4.243 5.997 5.997 0 0 1 6-6c1.592 0 3.121.631 4.247 1.757l1.413 1.413a1.332 1.332 0 0 0 1.886 0l1.413-1.413a6.018 6.018 0 0 1 4.243-1.76z"/>
    </symbol>
    <symbol id="icon-heart-circle" viewBox="0 0 32 32">
      <path d="M15.991 7.561C13.432 4.539 9.164 3.727 5.958 6.493S2.3 13.886 4.818 17.158c1.613 2.096 5.743 5.983 8.505 8.506.918.839 1.376 1.258 1.926 1.426a2.59 2.59 0 0 0 1.485 0c.55-.168 1.008-.588 1.926-1.426 2.761-2.524 6.892-6.41 8.505-8.506 2.518-3.272 2.122-7.928-1.14-10.665s-7.474-1.954-10.033 1.068z"/>
    </symbol>
    <symbol id="icon-footprint" viewBox="0 0 32 32">
      <path d="M12.5 5c-1.07 0-2.002.608-2.594 1.438S9 8.34 9 9.5s.314 2.233.906 3.063S11.43 14 12.5 14s2.002-.608 2.594-1.438c.592-.83.906-1.902.906-3.062s-.314-2.233-.906-3.063C14.502 5.607 13.57 5 12.5 5zM16 9.5c0 1.16.314 2.233.906 3.063S18.431 14 19.5 14c1.07 0 2.002-.608 2.594-1.438S23 10.66 23 9.5s-.314-2.233-.906-3.063C21.502 5.607 20.57 5 19.5 5s-2.002.608-2.594 1.438C16.314 7.268 16 8.34 16 9.5zM12.5 7c.312 0 .656.156.97.594.31.437.53 1.133.53 1.906s-.22 1.47-.53 1.906c-.314.438-.658.594-.97.594s-.656-.156-.97-.594c-.31-.437-.53-1.133-.53-1.906s.22-1.47.53-1.906c.314-.438.658-.594.97-.594zm7 0c.312 0 .656.156.97.594.31.437.53 1.133.53 1.906s-.22 1.47-.53 1.906c-.314.438-.658.594-.97.594s-.656-.156-.97-.594c-.31-.437-.53-1.133-.53-1.906s.22-1.47.53-1.906c.314-.438.658-.594.97-.594zm-12 5c-1.07 0-2.002.608-2.594 1.438S4 15.34 4 16.5s.314 2.233.906 3.063C5.498 20.393 6.43 21 7.5 21s2.002-.608 2.594-1.438c.592-.83.906-1.902.906-3.062s-.314-2.233-.906-3.063C9.502 12.607 8.57 12 7.5 12zm17 0c-1.07 0-2.002.608-2.594 1.438S21 15.34 21 16.5s.314 2.233.906 3.063C22.498 20.393 23.43 21 24.5 21s2.002-.608 2.594-1.438c.592-.83.906-1.902.906-3.062s-.314-2.233-.906-3.063C26.502 12.607 25.57 12 24.5 12zm-17 2c.312 0 .656.156.97.594.31.437.53 1.133.53 1.906s-.22 1.47-.53 1.906c-.314.438-.658.594-.97.594s-.656-.156-.97-.594C6.22 17.97 6 17.273 6 16.5s.22-1.47.53-1.906c.314-.438.658-.594.97-.594zm17 0c.312 0 .656.156.97.594.31.437.53 1.133.53 1.906s-.22 1.47-.53 1.906c-.314.438-.658.594-.97.594s-.656-.156-.97-.594c-.31-.437-.53-1.133-.53-1.906s.22-1.47.53-1.906c.314-.438.658-.594.97-.594zM16 16c-1.333 0-2.263.865-2.72 1.625-.454.76-.734 1.392-1 1.656-.153.157-1.118.52-2.124 1.033-.503.257-1.01.6-1.437 1.125-.43.525-.72 1.25-.72 2.063 0 1.92 1.58 3.5 3.5 3.5.866 0 1.77-.28 2.655-.53C15.043 26.216 16 26 16 26s.957.216 1.844.47c.886.25 1.79.53 2.656.53 1.92 0 3.5-1.58 3.5-3.5 0-.794-.293-1.52-.72-2.03-.425-.513-.937-.83-1.436-1.095-1-.53-1.983-.95-2.125-1.094-.24-.237-.51-.89-.97-1.654C18.29 16.86 17.34 16 16 16zm0 2c.66 0 .733.16 1.03.656.3.495.524 1.336 1.25 2.063.825.82 1.867 1 2.626 1.404.38.202.67.417.844.625.173.207.25.396.25.75 0 .84-.66 1.5-1.5 1.5-.29 0-1.224-.22-2.094-.47-.87-.247-1.59-.53-2.406-.53s-1.536.283-2.406.53c-.87.25-1.804.47-2.094.47-.84 0-1.5-.66-1.5-1.5 0-.403.084-.61.25-.814.166-.203.472-.404.844-.593.744-.38 1.78-.53 2.625-1.375.733-.737.953-1.605 1.25-2.095.292-.49.362-.625 1.03-.625L16 18z"/>
    </symbol>
    <symbol id="icon-male" viewBox="0 0 32 32">
      <path d="M16 3h-.002a.994.994 0 0 0-.706.292L9.959 8.625a.996.996 0 0 0 0 1.416.996.996 0 0 0 1.416 0L15 6.416v7.453c-3.731.512-6.667 3.596-6.667 7.464C8.333 25.555 11.777 29 16 29s7.667-3.444 7.667-7.667c0-3.868-2.936-6.951-6.667-7.464V6.416l3.625 3.625a.996.996 0 0 0 1.416 0 .996.996 0 0 0 0-1.416l-5.333-5.333A.998.998 0 0 0 16.002 3h-.003zm0 12.667c3.141 0 5.667 2.525 5.667 5.667S19.142 27.001 16 27.001c-3.141 0-5.667-2.525-5.667-5.667s2.525-5.667 5.667-5.667z"/>
    </symbol>
    <symbol id="icon-menu" viewBox="0 0 32 32">
      <path d="M4 14.5a1.5 1.5 0 0 0 0 3h24a1.5 1.5 0 0 0 0-3zM4 6.5a1.5 1.5 0 0 0 0 3h24a1.5 1.5 0 0 0 0-3zM4 22.5a1.5 1.5 0 0 0 0 3h24a1.5 1.5 0 0 0 0-3z"/>
    </symbol>
    <symbol id="icon-plus" viewBox="0 0 32 32">
      <path d="M16 5.333c-.736 0-1.333.597-1.333 1.333v18.667a1.333 1.333 0 0 0 2.666 0V6.666c0-.736-.597-1.333-1.333-1.333z"/>
      <path d="M6.667 14.667a1.333 1.333 0 0 0 0 2.666h18.667a1.333 1.333 0 0 0 0-2.666z"/>
    </symbol>
    <symbol id="icon-search" viewBox="0 0 32 32">
      <path d="M14.667 2.222c-6.852 0-12.444 5.593-12.444 12.444S7.816 27.11 14.667 27.11c6.852 0 12.444-5.593 12.444-12.444S21.518 2.222 14.667 2.222zm0 3.556c4.93 0 8.889 3.959 8.889 8.889s-3.959 8.889-8.889 8.889-8.889-3.959-8.889-8.889 3.959-8.889 8.889-8.889z"/>
      <path d="M22.201 20.424c-.491 0-.935.199-1.257.521-.322.322-.521.766-.521 1.257s.199.935.521 1.257l5.799 5.799c.322.322.766.521 1.257.521s.935-.199 1.257-.521c.322-.322.521-.766.521-1.257s-.199-.935-.521-1.257l-5.799-5.799a1.771 1.771 0 0 0-1.257-.521z"/>
    </symbol>
    <symbol id="icon-star" viewBox="0 0 32 32">
      <path d="M12.4 9.394 16 2.572l3.6 6.822a2.2 2.2 0 0 0 1.571 1.141l7.601 1.315-5.376 5.532a2.2 2.2 0 0 0-.6 1.846l1.098 7.635-6.922-3.404a2.199 2.199 0 0 0-1.941 0l-6.922 3.404 1.098-7.635a2.2 2.2 0 0 0-.6-1.846L3.231 11.85l7.601-1.315a2.202 2.202 0 0 0 1.571-1.141zm16.635 2.185zM7.767 27.031z"/>
      <path d="m16 0-4.66 8.836a.995.995 0 0 1-.715.516L.781 11.055l6.965 7.164a.997.997 0 0 1 .27.84l-1.422 9.887 8.965-4.41a1 1 0 0 1 .883 0l8.965 4.41-1.422-9.887a.997.997 0 0 1 .27-.84l6.965-7.164-9.844-1.703a.996.996 0 0 1-.715-.516zm0 5.145 2.539 4.809a3.404 3.404 0 0 0 2.426 1.766l5.363.926-3.793 3.902a3.4 3.4 0 0 0-.93 2.852l.777 5.383-4.883-2.398a3.4 3.4 0 0 0-3 0l-4.883 2.398.777-5.383a3.402 3.402 0 0 0-.93-2.852L5.67 12.646l5.363-.926a3.404 3.404 0 0 0 2.426-1.766z"/>
    </symbol>
    <symbol id="icon-trash" viewBox="0 0 32 32">
      <path d="M4 6.667a1.333 1.333 0 0 0 0 2.666h24a1.333 1.333 0 0 0 0-2.666H6.667z"/>
      <path d="M13.333 1.333c-1.06 0-2.08.42-2.83 1.17s-1.17 1.77-1.17 2.83V8a1.333 1.333 0 0 0 2.666 0V5.333c0-.354.139-.694.389-.944s.59-.389.944-.389h5.333c.354 0 .694.139.944.389s.389.59.389.944V8a1.333 1.333 0 0 0 2.666 0V5.333c0-1.06-.42-2.08-1.17-2.83s-1.77-1.17-2.83-1.17zM6.667 6.667c-.736 0-1.333.597-1.333 1.333v18.667c0 1.06.42 2.08 1.17 2.83s1.77 1.17 2.83 1.17h13.333c1.06 0 2.08-.42 2.83-1.17s1.17-1.77 1.17-2.83V8a1.333 1.333 0 0 0-2.666 0v18.667c0 .354-.139.694-.389.944s-.59.389-.944.389H9.335c-.354 0-.694-.139-.944-.389s-.389-.59-.389-.944V8c0-.736-.597-1.333-1.333-1.333z"/>
      <path d="M13.333 13.333c-.736 0-1.333.597-1.333 1.333v8a1.333 1.333 0 0 0 2.666 0v-8c0-.736-.597-1.333-1.333-1.333zm5.334 0c-.736 0-1.333.597-1.333 1.333v8a1.333 1.333 0 0 0 2.666 0v-8c0-.736-.597-1.333-1.333-1.333z"/>
    </symbol>
    <symbol id="icon-upload-cloud" viewBox="0 0 32 32">
      <path d="M16 14.844h-.001c-.638 0-1.156.517-1.156 1.156v12.002c0 .638.517 1.156 1.156 1.156h.002c.638 0 1.156-.517 1.156-1.156V16c0-.638-.517-1.156-1.156-1.156H16z"/>
      <path d="M11.559 2.854c-1.786.066-3.537.537-5.115 1.375S3.502 6.255 2.447 7.698a11.826 11.826 0 0 0-1.844 10.15 11.839 11.839 0 0 0 2.531 4.653 1.154 1.154 0 0 0 1.63.1l-.001.001a1.155 1.155 0 0 0 .1-1.633l.001.001a9.523 9.523 0 0 1-.552-11.909 9.502 9.502 0 0 1 7.33-3.892 9.506 9.506 0 0 1 9.559 7.122c.132.503.582.867 1.118.868H24a5.513 5.513 0 0 1 2.631 10.352 1.156 1.156 0 0 0-.455 1.572l-.003-.006a1.158 1.158 0 0 0 1.572.459l-.006.003a7.823 7.823 0 0 0 3.837-8.799 7.827 7.827 0 0 0-7.577-5.892h-1.014c-.479-1.37-1.043-2.72-1.986-3.83a11.831 11.831 0 0 0-9.441-4.16z"/>
      <path d="m15.184 15.184-5.333 5.333a1.153 1.153 0 0 0 0 1.632 1.153 1.153 0 0 0 1.632 0L16 17.632l4.517 4.517a1.153 1.153 0 0 0 1.632 0 1.153 1.153 0 0 0 0-1.632l-5.333-5.333a1.153 1.153 0 0 0-1.632 0z"/>
    </symbol>
    <symbol id="icon-user" viewBox="0 0 32 32">
      <path d="M16 20c-4.227 0-7.986 2.041-10.379 5.208-.515.682-.773 1.022-.764 1.483.006.356.23.805.51 1.025.362.284.865.284 1.869.284h17.527c1.005 0 1.507 0 1.869-.284.28-.22.503-.669.51-1.025.008-.461-.249-.801-.764-1.483C23.985 22.041 20.226 20 15.999 20z"/>
      <path d="M16 18.667c-4.656 0-8.811 2.254-11.443 5.737-.258.341-.477.619-.677.977s-.366.851-.357 1.336c.016.893.318 1.498 1.021 2.049.417.327.928.472 1.357.523s.834.044 1.336.044h17.526c.502 0 .904.007 1.333-.044s.943-.197 1.359-.523c.703-.552 1.004-1.156 1.021-2.049.009-.485-.157-.979-.357-1.336s-.42-.636-.677-.977c-2.632-3.483-6.787-5.737-11.443-5.737zm0 2.666c3.797 0 7.161 1.829 9.315 4.68.241.318.383.519.448.628-.167.019-.507.026-1 .026H7.237c-.493 0-.833-.007-1-.026a8.89 8.89 0 0 1 .448-.628c2.154-2.851 5.517-4.68 9.315-4.68zM16 16a6 6 0 1 0 0-12 6 6 0 0 0 0 12z"/>
      <path d="M16 2.667c-4.034 0-7.333 3.299-7.333 7.333s3.299 7.333 7.333 7.333c4.034 0 7.333-3.299 7.333-7.333S20.034 2.667 16 2.667zm0 2.666c2.593 0 4.667 2.074 4.667 4.667S18.593 14.667 16 14.667 11.333 12.593 11.333 10 13.407 5.333 16 5.333z"/>
    </symbol>
  </defs>
</svg>
